<?xml version="1.0" encoding="utf-8"?>
<svg viewBox="40.6041 44.1196 128.7917 208.7607" xmlns="http://www.w3.org/2000/svg">
  <style>
    path {
        fill: black;
    }
    @media (prefers-color-scheme: dark) {
        path {
            fill: white;
        }
    }
  </style>
  <path d="m 125.21881,126.47614 q 0.71006,0.69962 1.31686,1.72642 c 1.03609,1.75311 1.79604,3.62688 2.56643,5.50645 a 0.05569099,0.05569099 0 0 0 0.0766,0.0278 q 4.41931,-2.23576 6.40563,-6.77225 a 0.05569099,0.05569099 0 0 1 0.1021,0 q 0.72398,1.68813 1.20199,3.49229 c 0.19144,0.59287 0.71006,2.06056 0.52443,2.6314 q -0.3794,1.16022 -0.84813,2.28797 -1.76007,4.21279 -4.42163,7.88607 a 0.2320458,0.23320603 57.2 0 0 -0.0394,0.17868 l 0.77967,4.0434 a 0.07425466,0.07541489 69.1 0 0 0.11255,0.0499 c 2.15454,-1.2809 5.27672,-2.62212 5.73733,-5.40667 0.33414,-2.0188 -1.18924,-4.14434 -2.45273,-5.59346 a 0.06497282,0.06497282 0 0 1 0.0418,-0.10675 q 0.0766,-0.008 0.15895,0.029 2.07913,1.52106 3.96567,3.30433 c 1.5257,1.61388 3.15234,3.76495 3.19875,6.0796 a 0.12298427,0.12298427 0 0 0 0.0464,0.094 c 2.10465,1.68349 3.664,3.05952 5.04235,5.25816 2.05477,3.27997 1.01752,5.82319 -2.1383,7.65403 q -3.66168,2.20675 -7.29204,4.46688 c -0.67177,0.41884 -0.94675,1.07901 -0.96995,1.85173 0.10558,1.52222 0.72282,2.30189 1.832,3.26952 2.01764,1.76123 4.23484,3.45748 5.35214,5.9833 0.83536,2.11046 0.5337,4.3323 -0.54183,6.29424 l -0.89918,1.36327 q -1.28321,1.63941 -3.07924,2.6929 c -1.79488,1.01868 -3.45401,1.5373 -5.5691,2.18471 l -2.67781,0.75415 a 0.02674196,0.02674196 0 0 1 -0.0221,-0.0487 c 0.25989,-0.15896 0.46642,-0.38984 0.73095,-0.51515 1.56979,-0.74486 2.90173,-1.55818 4.0724,-2.89013 2.73466,-3.02239 3.17903,-7.1064 0.4815,-10.34924 q -0.35387,-0.4258 -0.90382,-0.85857 -2.42372,-1.90974 -4.62235,-4.0724 c -0.62305,-0.6126 -1.0767,-1.18576 -1.56399,-1.88421 q -1.021,-1.46305 -0.83421,-3.31594 l -3.1303,-2.86692 c -1.41199,-1.33195 -2.91449,-2.92842 -3.08969,-4.97623 -0.15315,-1.77399 0.72747,-2.87504 2.03853,-3.98306 a 0.08469672,0.08701718 60.2 0 0 0.0267,-0.0928 q -0.57315,-1.76239 -1.10106,-3.5387 -0.35619,-1.20084 -0.40027,-2.1209 c -0.094,-2.02112 1.22984,-3.7371 2.61399,-5.11893 q 0.13575,-0.13458 -0.0545,-0.11602 c -2.43532,0.23785 -4.0666,-0.84117 -4.86136,-3.10825 q -0.83536,-2.38312 -1.41548,-4.83816 c -0.36315,-1.53846 -0.13342,-2.67317 0.20652,-4.30445 0.31326,-1.0384 0.60216,-1.90626 1.4294,-2.58499 0.9746,-0.76923 2.02809,-0.41188 2.86693,0.35271 z m -0.5279,5.49717 c -0.99896,0.42812 -1.55355,1.58951 -1.81924,2.5815 a 0.06033191,0.06033191 0 0 0 0.0406,0.0731 c 1.71713,0.51514 3.60599,0.21348 5.23147,-0.43625 a 0.05105008,0.05105008 0 0 0 0.0267,-0.0731 c -0.62768,-1.13935 -1.93526,-2.80776 -3.47952,-2.14526 z m 6.79314,12.17776 q -1.33311,1.6336 -2.63372,3.03748 c -1.18344,1.27857 -2.32278,2.60819 -2.55599,4.40887 a 0.03016595,0.02900572 77 0 0 0.0452,0.029 q 3.09433,-2.05128 6.33021,-3.87284 a 0.06613305,0.06497282 64.7 0 0 0.029,-0.0812 q -0.66249,-1.72526 -1.15443,-3.50853 a 0.03480687,0.03480687 0 0 0 -0.0603,-0.0128 z m 11.16256,4.17102 q -0.8284,0.93283 -1.7009,1.48045 -2.14758,1.34703 -8.15989,4.97391 c -1.89929,1.1463 -3.94826,2.41095 -4.08168,4.64555 q -0.0835,2.0977 1.36675,3.60019 a 0.09397855,0.09397855 0 0 0 0.15431,-0.0302 c 0.53718,-1.33079 1.59879,-2.20444 2.76482,-2.96439 2.76135,-1.80067 5.63756,-3.4424 8.472,-5.12589 q 1.44564,-0.77619 2.48753,-1.95499 0.97459,-1.10453 1.00244,-2.50145 c 0.0928,-1.33426 -0.61493,-2.7277 -1.39344,-3.78235 a 0.02436481,0.02436481 0 0 0 -0.0429,0.008 q -0.24017,0.90149 -0.86901,1.651 z" id="path342" style="fill-opacity:1;fill-rule:nonzero;stroke-width:0.116023" transform="matrix(3.366313457489014, 0, 0, 3.366313457489014, -334.8690490722657, -379.0085754394532)"/>
  <path d="m 116.5461,135.86471 q 1.18111,1.0941 2.2578,2.2961 1.23449,1.28901 1.68118,1.97935 c 4.05384,6.25479 2.89709,13.787 0.90962,20.47108 q -1.56631,5.00174 -3.63152,9.82018 c -1.48277,3.45748 -2.76483,7.31176 -1.41548,11.0651 a 0.29701862,0.30165954 3.1 0 0 0.14619,0.16591 q 4.265,2.14179 8.46387,-0.17171 c 2.55482,-1.43636 4.29517,-3.91925 4.56202,-6.87204 a 0.04524893,0.04524893 0 0 0 -0.0522,-0.0487 c -1.67073,0.25757 -2.71726,-0.54066 -3.80903,-1.69393 q -1.40388,-1.48509 -2.73234,-3.03864 -0.66481,-0.77735 -1.01868,-1.48161 c -0.39216,-0.75647 -0.3794,-1.70322 0.26685,-2.29842 0.71006,-0.65321 2.02344,-0.53486 2.84256,-0.19608 1.15211,0.47686 2.10002,1.40504 2.98179,2.29146 q 2.12206,2.13946 3.92505,4.55389 c 2.57107,3.7197 2.68245,8.36642 -0.49309,11.77633 l -0.93747,0.87017 q -0.82956,0.64509 -1.76471,1.12658 -4.82655,2.15919 -9.16697,-0.78431 -1.09061,-0.81564 -2.23228,-1.9956 -2.18239,-2.25548 -3.85776,-4.41351 c -3.60251,-4.83119 -1.43752,-10.09979 0.59636,-14.95071 2.22068,-5.29528 4.14086,-10.90847 4.75578,-16.64232 0.0615,-0.572 0.0615,-1.21244 0.0963,-1.81692 q 0.0406,-1.65797 -0.14503,-3.30665 -0.22509,-1.78328 -0.80868,-3.48185 -0.54183,-1.64521 -1.49206,-3.09085 -0.0244,-0.0371 -0.0186,-0.0812 a 0.05685122,0.05569099 0.7 0 1 0.0499,-0.0476 z" id="path354" style="fill-opacity: 1; fill-rule: nonzero; stroke-width: 0.116023;" transform="matrix(3.366313457489014, 0, 0, 3.366313457489014, -334.8690490722657, -379.0085754394532)"/>
</svg>