<svg xmlns="http://www.w3.org/2000/svg" xml:space="preserve" viewBox="0 0 30.095333 30.095333">
  <g paint-order="markers fill stroke">
    <path fill="currentColor" d="M24.111955 0a17.107077 17.107077 0 0 1 4.118806 11.123692 17.107077 17.107077 0 0 1-17.107069 17.10707A17.107077 17.107077 0 0 1 0 24.111954a17.107077 17.107077 0 0 0 12.988263 5.983378 17.107077 17.107077 0 0 0 17.10707-17.10707A17.107077 17.107077 0 0 0 24.111955 0Z"/>
    <text xml:space="preserve" x="7.096067" y="6.524174" fill="currentColor" stroke-width="0" font-family="Aldhabi" font-size="10.514" font-weight="400" style="line-height:0;-inkscape-font-specification:&quot;Aldhabi, Normal&quot;;font-variant-ligatures:normal;font-variant-caps:normal;font-variant-numeric:normal;font-variant-east-asian:normal;text-align:end" text-anchor="end" transform="matrix(3.2 0 0 4 -9.386583 -9.386583)"><tspan x="7.096067" y="6.524174" style="text-align:center" text-anchor="middle">30</tspan></text>
    <path d="M4.819231 4.506595q-.046204.105242-.151446.159147-.105243.051338-.213052.051338-.053905 0-.105243-.012835-.048771-.015401-.087274-.043637-.038503-.028236-.061605-.071873-.023102-.043637-.023102-.105243 0-.094975.059039-.195084.059037-.100108.156579-.195083.100109-.094976.23102-.177116.133479-.084708.279792-.146313.146313-.064172.29776-.100109.151447-.035937.292626-.035937.192517 0 .341397.066739t.248989.174549q.102675.10781.154013.246422.053905.136045.053905.277224 0 .10781-.03337.22332-.03337.115511-.112943.233588-.077007.118077-.205352.238721-.125777.118078-.310594.233588l.00513.020535q.146313.010268.30546.069306.159148.059039.29006.169415.130911.10781.215619.269524.087275.159147.087275.3722 0 .19765-.07444.390167-.07444.195084-.202785.3722-.128341.177116-.30289.328563-.171982.151447-.369633.261823-.195084.110377-.40557.171982-.207918.064172-.410702.064172-.146313 0-.261824-.03337-.11551-.030802-.19765-.087274-.079574-.053904-.123211-.125777-.043638-.071873-.043638-.154014 0-.084708.048771-.174549.048771-.087274.15658-.169415.192518.18225.374768.248989.184816.069306.3722.069306.151446 0 .295192-.04107.146313-.038503.259256-.136046.11551-.094975.184817-.254122.069306-.159148.069306-.397869 0-.18225-.046204-.33883-.046204-.15658-.143746-.269524-.094975-.11551-.243855-.179682-.146313-.06674-.349098-.06674-.097542 0-.184816.017969-.087274.0154-.207919.053905 0-.082141.030803-.133479.030803-.053905.084708-.089841.053905-.038503.125778-.069306.071873-.028236.154014-.066739.094975-.046204.195084-.100109.102676-.056472.18225-.14118.08214-.087273.133478-.215618.053905-.128345.053905-.323429 0-.179683-.046204-.300327-.043637-.12321-.120644-.19765-.07444-.077008-.171982-.110377-.097542-.03337-.202785-.03337-.092408 0-.171982.023102-.079574.020535-.138612.05904-.05904.035936-.094975.087273-.03337.051338-.03337.110376 0 .10011.112943.228454zM8.492458 6.32909q.159148 0 .279792-.051338.120644-.053905.207918-.143746.087274-.089841.143747-.207919.056472-.120644.08984-.254122.03337-.136046.046205-.277225.0154-.143746.0154-.277225 0-.23102-.04107-.44664-.038502-.218185-.13091-.385033-.092409-.169415-.246422-.269524-.154014-.10011-.385035-.10011-.16428 0-.287492.051339-.12321.051338-.210485.14118-.087274.087273-.146313.20535-.056472.118078-.089841.24899-.03337.130911-.046204.266957-.012835.136045-.012835.26439 0 .23102.04107.45434.04107.220753.136045.395302.094975.171982.248989.279791.15658.105243.387601.105243zm.077008-2.69524q.290059 0 .539047.094976.251556.094974.436372.279791.184817.18225.29006.451773.10781.266957.10781.616055 0 .269524-.064173.48771-.061606.21562-.171982.387601-.10781.169415-.25669.295193-.146312.123211-.318294.205352-.169415.079574-.354232.118077-.18225.04107-.364499.04107-.279791 0-.533914-.089841-.254123-.092408-.44664-.272091-.192517-.18225-.308027-.45434-.112944-.274658-.112944-.63659 0-.277225.06674-.497978.066739-.220753.18225-.390168.11551-.169415.269523-.290059.154014-.120644.325996-.19765.174548-.077007.356798-.112944t.356799-.035937Z" aria-label="30" font-family="Aldhabi" font-size="10.514" style="line-height:0;-inkscape-font-specification:&quot;Aldhabi, Normal&quot;;text-align:center" text-anchor="middle" transform="matrix(3.2 0 0 4 -9.386583 -9.386583)"/>
  </g>
</svg>
