<svg xmlns="http://www.w3.org/2000/svg" xml:space="preserve" viewBox="0 0 510 512">
  <path d="m345.82437 98.78304-83.82777 16.42532-5.08956 86.08677 29.44859-6.7906-8.20588 40.21283 22.37222-6.80418-11.10446 53.73957c-.55305 3.51379 4.02308 5.38348 6.28708.35381l65.41559-130.5454-32.27913 6.23264c5.65149-19.63968 11.3214-39.27407 16.98328-58.91076z"/>
  <path fill="currentColor" d="M305.30621 17.101651c-17.46266.0287-34.82231 2.675796-51.4999 7.852981-54.80198 16.968329-97.73839 59.827302-114.80562 114.598558 21.02327-10.26833 43.656-16.84434 66.90846-19.44046 1.75682-2.44197 3.60023-4.81995 5.53022-7.13394 15.13579-18.125271 35.18351-31.494333 57.73409-38.500684 22.55088-6.996068 46.64116-7.338534 69.3818-.986329 22.73782 6.366093 43.15647 19.156344 58.80701 36.836733 15.64441 17.68203 25.8477 39.507 29.3828 62.8502 3.53691 23.34611.26385 47.21691-9.42659 68.74935-9.7054 21.52007-25.4116 39.78427-45.23558 52.60292a122.72669 122.72669 0 0 1-26.22052 12.80721c.60485 4.94419.90852 9.9687.91103 15.07351.0159 13.67424-2.2606 27.25441-6.73489 40.17594 21.42287-4.30819 41.84203-12.61481 60.18862-24.48504 28.22086-18.24668 50.5792-44.24666 64.39369-74.8819 13.78509-30.63816 18.44226-64.60169 13.41331-97.81968-5.04458-33.21894-19.57221-64.27699-41.83613-89.439657-22.26392-25.162668-51.30414-43.360803-83.67227-52.403402a174.301552 174.301552 0 0 0-47.21953-6.45631M194.35556 151.30255c-1.67651.37395-3.35301.7755-5.02952 1.20467l.0452-.1167-2.63146.7341a173.16783 173.16783 0 0 0-9.72023 2.74817 169.400688 169.400688 0 0 0-8.36873 2.79334c-2.66535.97378-5.30309 2.01281-7.91322 3.1171-2.70801 1.13189-5.38465 2.33782-8.02992 3.61779-3.96791 1.91995-5.25164 2.6164-7.83793 4.01308l-3.77967 1.95759.33882.0452c-2.62017 1.42302-5.20395 2.91381-7.75134 4.47236-28.21884 18.23509-50.570305 44.23249-64.367339 74.86684-13.793539 30.64771-18.454129 64.6158-13.424607 97.83474 5.029522 33.21894 19.572218 64.27699 41.836135 89.43966 22.263921 25.16267 51.307901 43.36833 83.676041 52.41093 32.35807 9.06149 66.64567 8.57647 98.73449-1.39667 32.08686-9.95663 60.61255-28.97419 82.14383-54.76382 14.75581-17.64947 25.87179-38.04539 32.70696-60.01168-21.01882 10.33131-43.66486 16.95281-66.93857 19.57222a131.761415 131.761415 0 0 1-5.56034 7.19041c-15.1462 18.1173-35.1977 31.48018-57.74915 38.48563-22.54562 7.00098-46.63394 7.33826-69.36674.97127-46.44921-12.97474-80.96845-51.98828-88.18982-99.67187-3.53691-23.34611-.26385-47.21691 9.42659-68.74935 9.69629-21.52587 25.40451-39.79242 45.23559-52.60293a122.349683 122.349683 0 0 1 25.70477-12.63027 127.999107 127.999107 0 0 1-.69268-13.17614c0-14.89657 2.64652-29.16069 7.4991-42.35189zm-53.26174 20.07291h-.0151v.0151zm87.60253 105.34891c-25.23419 0-45.70616 20.4569-45.70616 45.69109-.002 25.24368 20.46248 45.70824 45.70616 45.70616 25.2342 0 45.6911-20.4682 45.6911-45.70616-.006-25.23191-20.45919-45.68486-45.6911-45.69109"/>
</svg>
